<!DOCTYPE svg PUBLIC "-//W3C//DTD SVG 1.1//EN" "http://www.w3.org/Graphics/SVG/1.1/DTD/svg11.dtd">
<!-- Uploaded to: SVG Repo, www.svgrepo.com, Transformed by: SVG Repo Mixer Tools -->
<svg width="800px" height="800px" viewBox="-2.4 -2.4 28.80 28.80" fill="none" xmlns="http://www.w3.org/2000/svg" stroke="#000000" transform="matrix(1, 0, 0, 1, 0, 0)">
<g id="SVGRepo_bgCarrier" stroke-width="0" transform="translate(0,0), scale(1)">
<path transform="translate(-2.4, -2.4), scale(0.8999999999999999)" d="M16,30.384287739793457C19.491691209902804,30.81631466384464,23.286805074946734,30.15469260193863,25.906782914732194,27.806444129683033C28.48434182891307,25.49621513062032,29.152632847972267,21.8163692404223,29.410515297370157,18.364635672129964C29.644243432598806,15.236205443137026,28.632542939628287,12.31856765709198,27.275203383508277,9.49025829136372C25.785461696254046,6.386060563109769,24.595496808807553,2.4327011921243167,21.294564449795985,1.4533037283383496C18.015700686511405,0.4804540893284114,15.107215239015538,3.56965531994231,11.978767931547303,4.951755693539406C9.159907896588729,6.197085125214269,5.99547350538605,6.717708114308298,4.021569401713215,9.084249869609867C1.7582459697076587,11.797780581475376,-0.33852555140582063,15.299241282788284,0.48117121313839384,18.73638822411891C1.2895343619282376,22.12601112435367,5.169827794003034,23.49367800287516,7.956814900549633,25.585494738170187C10.53135862985473,27.51785877604423,12.80530745171319,29.989008457647543,16,30.384287739793457" fill="#9de3fb" strokewidth="0"/>
</g>
<g id="SVGRepo_tracerCarrier" stroke-linecap="round" stroke-linejoin="round"/>
<g id="SVGRepo_iconCarrier"> <path opacity="0.4" d="M16.1898 2H7.81976C4.17976 2 2.00977 4.17 2.00977 7.81V16.18C2.00977 19.82 4.17976 21.99 7.81976 21.99H16.1898C19.8298 21.99 21.9998 19.82 21.9998 16.18V7.81C21.9998 4.17 19.8298 2 16.1898 2Z" fill="#fc03ba"/> <path d="M15.6191 7.09996L13.3292 6.34001C12.7492 6.14001 12.1592 6.21996 11.7092 6.53996C11.2592 6.85996 11.0092 7.39999 11.0092 8.00999V8.61998V12.8C10.6092 12.58 10.1591 12.45 9.66913 12.45C8.12913 12.45 6.86914 13.71 6.86914 15.25C6.86914 16.79 8.12913 18.05 9.66913 18.05C11.2091 18.05 12.4691 16.79 12.4691 15.25V10.7C12.4791 10.71 12.4992 10.71 12.5092 10.72L14.7991 11.48C15.0091 11.55 15.2291 11.59 15.4391 11.59C15.7991 11.59 16.1391 11.49 16.4191 11.28C16.8691 10.96 17.1191 10.42 17.1191 9.80998V9.2C17.1191 8.29 16.4791 7.38996 15.6191 7.09996ZM9.66913 16.59C8.92913 16.59 8.33917 15.99 8.33917 15.26C8.33917 14.52 8.93913 13.92 9.66913 13.92C10.4091 13.92 11.0092 14.52 11.0092 15.26C11.0092 15.99 10.4091 16.59 9.66913 16.59Z" fill="#fc03ba"/> </g>
</svg>